<?xml version='1.0' encoding='iso-8859-1'?>
<svg version="1.1" xmlns="http://www.w3.org/2000/svg" viewBox="0 0 463 463" xmlns:xlink="http://www.w3.org/1999/xlink" enable-background="new 0 0 463 463">
  <path d="M455.5,340H447v-48.5c0-4.142-3.357-7.5-7.5-7.5H415v-32.5c0-3.441-2.342-6.441-5.681-7.276l-32-8  c-2.239-0.559-4.613-0.057-6.435,1.364c-1.82,1.421-2.885,3.602-2.885,5.912V268h-17v-8.5c0-4.142-3.357-7.5-7.5-7.5H327v-24.5  c0-4.142-3.357-7.5-7.5-7.5H279v-16.5c0-4.142-3.357-7.5-7.5-7.5H247v-32.5c0-2.361-1.111-4.583-3-6l-29-21.75V115.5  c0-4.142-3.357-7.5-7.5-7.5s-7.5,3.358-7.5,7.5V180h-17v-8.5c0-2.599-1.346-5.013-3.557-6.38c-2.214-1.368-4.974-1.491-7.298-0.328  l-32,16c-2.54,1.27-4.146,3.867-4.146,6.708V228h-32.5c-4.143,0-7.5,3.358-7.5,7.5V284H79v-24.5c0-2.205-0.97-4.298-2.652-5.723  c-1.682-1.425-3.902-2.039-6.081-1.675l-48,8C18.65,260.705,16,263.833,16,267.5V340H7.5c-4.143,0-7.5,3.358-7.5,7.5  s3.357,7.5,7.5,7.5h448c4.143,0,7.5-3.358,7.5-7.5S459.643,340,455.5,340z M432,299v41h-17v-41H432z M383,253.106l17,4.25V340h-17  V253.106z M368,283v57h-17v-57H368z M336,340h-17v-32.5c0-3.822-2.873-7.032-6.672-7.454L311,299.898V267h25V340z M247,307.879  l57,6.333V340h-57V307.879z M312,235v17h-8.5c-4.143,0-7.5,3.358-7.5,7.5v38.732l-17-1.889V235H312z M264,211v83.676l-17-1.889V211  H264z M232,167.25v132.184c0,0.003,0,0.007,0,0.01V340h-17V154.5L232,167.25z M200,340h-17V195h17V340z M151,192.135l17-8.5v3.865  V340h-17V192.135z M111,243h25v97h-17v-48.5c0-4.142-3.357-7.5-7.5-7.5H111V243z M104,299v41H63v-41H104z M31,273.854l33-5.5V284  h-8.5c-4.143,0-7.5,3.358-7.5,7.5V340H31V273.854z"/>
</svg>
